<?xml version="1.0" standalone="no"?><!DOCTYPE svg PUBLIC "-//W3C//DTD SVG 1.1//EN" "http://www.w3.org/Graphics/SVG/1.1/DTD/svg11.dtd"><svg class="icon" height="512" viewBox="0 0 1024 1024" version="1.1" xmlns="http://www.w3.org/2000/svg"><path d="M832.911382 793.613866 191.089641 793.613866c-26.586518 0-48.13837-21.320585-48.13837-47.614437 0-26.291806 21.552875-47.609321 48.13837-47.609321 26.584472 0 48.1353-37.241182 48.1353-63.538105L239.224941 333.367577c0-122.711809 100.57565-222.187405 224.6372-222.187405 0-26.294876 21.552875-47.609321 48.139393-47.609321 26.584472 0 48.134277 21.315468 48.134277 47.609321 124.063597 0 224.6372 99.475596 224.6372 222.187405L784.773012 634.852002c0 26.296923 21.550829 63.538105 48.13837 63.538105 26.582425 0 48.1353 21.317515 48.1353 47.609321C881.046682 772.293281 859.493807 793.613866 832.911382 793.613866zM846.511121 745.999428c0-26.151613-18.013259-23.744797-45.479821-31.68463-25.539676-7.383154-48.13837-37.241182-48.13837-63.538105L752.892931 349.293291c0-122.711809-89.942475-206.263737-214.007095-206.263737 0-26.292829-0.300852-47.607274-26.8843-47.607274-26.586518 0-26.88737 21.315468-26.88737 47.607274-124.06462 0-214.008118 83.551928-214.008118 206.263737l0 301.484426c0 26.296923-23.236214 54.232159-48.137347 63.538105-23.936155 8.943696-48.137347 5.392824-48.137347 31.68463 0 19.551288 21.552875 15.763009 48.137347 15.763009l578.062602 0C827.615773 761.762437 846.511121 766.301823 846.511121 745.999428zM512.001535 960.430172c-77.985142 0-141.202952-62.529125-141.202952-139.66083l282.404881 0C653.202441 897.900024 589.981561 960.430172 512.001535 960.430172zM512.001535 928.578744c56.877405 0 66.318428-24.789593 109.317755-75.958996L402.678664 852.619748C437.914166 901.509225 455.119013 928.578744 512.001535 928.578744z" /></svg>